<?xml version="1.0" encoding="UTF-8"?>
<svg xmlns="http://www.w3.org/2000/svg" width="800" height="520" viewBox="0 0 800 520">
  <style>
    .bg { fill: #ffffff; }
    .border { fill: none; stroke: #333333; stroke-width: 2; }
    .grid { fill: none; stroke: #cccccc; stroke-width: 1; }
    .header { fill: #004080; font-family: Arial, sans-serif; font-size: 28px; font-weight: bold; }
    .label { fill: #222222; font-family: Arial, sans-serif; font-size: 20px; font-weight: bold; }
    .cell { fill: #222222; font-family: Arial, sans-serif; font-size: 18px; }
  </style>
  <rect class="bg" x="0" y="0" width="800" height="520" rx="20" ry="20" />
  <rect class="border" x="30" y="30" width="740" height="460" rx="16" ry="16" />
  <text class="header" x="60" y="72">KSCAA Tech RRC Group Use Case</text>
  <rect class="grid" x="60" y="100" width="680" height="340" />
  <line class="grid" x1="60" y1="140" x2="740" y2="140" />
  <line class="grid" x1="310" y1="100" x2="310" y2="440" />
  <line class="grid" x1="60" y1="180" x2="740" y2="180" />
  <line class="grid" x1="60" y1="220" x2="740" y2="220" />
  <line class="grid" x1="60" y1="260" x2="740" y2="260" />
  <line class="grid" x1="60" y1="300" x2="740" y2="300" />
  <line class="grid" x1="60" y1="340" x2="740" y2="340" />
  <line class="grid" x1="60" y1="380" x2="740" y2="380" />
  <line class="grid" x1="60" y1="420" x2="740" y2="420" />
  <text class="label" x="90" y="132">Name</text>
  <text class="label" x="340" y="132">Topics</text>
  <text class="cell" x="90" y="170">Group 1</text>
  <text class="cell" x="340" y="170">GST Notice responses</text>
  <text class="cell" x="90" y="210">Group 10</text>
  <text class="cell" x="340" y="210">Client documentation portal</text>
  <text class="cell" x="90" y="250">Group 2</text>
  <text class="cell" x="340" y="250">Audit Planning Assistant</text>
  <text class="cell" x="90" y="290">Group 9</text>
  <text class="cell" x="340" y="290">MIS Dashboard</text>
  <text class="cell" x="90" y="330">Group 4</text>
  <text class="cell" x="340" y="330">Invoice Data Extraction</text>
  <text class="cell" x="90" y="370">Group 5</text>
  <text class="cell" x="340" y="370">Compliance Management</text>
  <text class="cell" x="90" y="410">Group 7</text>
  <text class="cell" x="340" y="410">Cashflow</text>
  <text class="cell" x="90" y="450">Group 8</text>
  <text class="cell" x="340" y="450">Expense reimbursement workflow</text>
</svg>